<svg width="59" height="63" viewBox="0 0 89 93" fill="none" xmlns="http://www.w3.org/2000/svg">
<path d="M51.3548 64.8052L51.3399 63.3052L51.3399 63.3052L51.3548 64.8052ZM3.60516 64.2187C3.02522 64.8102 3.03465 65.7599 3.62622 66.3399L13.2665 75.7905C13.8581 76.3705 14.8078 76.3611 15.3877 75.7695C15.9676 75.1779 15.9582 74.2282 15.3666 73.6483L6.79751 65.2477L15.1981 56.6785C15.7781 56.087 15.7686 55.1373 15.1771 54.5573C14.5855 53.9774 13.6358 53.9868 13.0558 54.5784L3.60516 64.2187ZM48.7881 17.8271L48.6396 16.3345L48.6396 16.3345L48.7881 17.8271ZM70.739 36.636L69.2413 36.7179L69.2413 36.7179L70.739 36.636ZM71.1263 43.7133L72.6241 43.6314L72.6241 43.6314L71.1263 43.7133ZM51.3399 63.3052L4.6614 63.7688L4.69119 66.7687L51.3697 66.3051L51.3399 63.3052ZM37.815 20.4267L48.9367 19.3197L48.6396 16.3345L37.5179 17.4414L37.815 20.4267ZM69.2413 36.7179L69.6286 43.7953L72.6241 43.6314L72.2368 36.554L69.2413 36.7179ZM48.9367 19.3197C59.4254 18.2758 68.6653 26.1932 69.2413 36.7179L72.2368 36.554C71.5675 24.3225 60.8291 15.1213 48.6396 16.3345L48.9367 19.3197ZM51.3697 66.3051C63.6206 66.1834 73.2935 55.8646 72.6241 43.6314L69.6286 43.7953C70.2046 54.3215 61.8814 63.2006 51.3399 63.3052L51.3697 66.3051Z" fill="rgb(226, 92, 43)"/>
<path d="M14.76 30.82H19.42C20.6733 30.82 21.58 31.1267 22.14 31.74C22.7133 32.3533 23 33.3533 23 34.74V35.5C23 37.14 22.4133 38.12 21.24 38.44C21.96 38.6267 22.4667 39.06 22.76 39.74C23.0533 40.42 23.2 41.32 23.2 42.44C23.2 44.2667 22.9267 45.6533 22.38 46.6C21.8333 47.5333 20.8467 48 19.42 48H14.76V30.82ZM18.82 37.28C19.1133 37.28 19.3133 37.1733 19.42 36.96C19.5267 36.7333 19.58 36.42 19.58 36.02V34.3C19.58 33.74 19.3333 33.46 18.84 33.46H18.12V37.28H18.82ZM18.46 44.98C19.3533 44.98 19.8 44.5533 19.8 43.7V41.56C19.8 41.04 19.72 40.6467 19.56 40.38C19.4133 40.1133 19.1467 39.98 18.76 39.98H18.12V44.96L18.46 44.98ZM23.8703 48L25.5303 30.82H31.3503L32.9903 48H29.7303L29.4903 45.22H27.4103L27.2103 48H23.8703ZM27.6703 42.48H29.2303L28.4703 33.74H28.3103L27.6703 42.48ZM38.0373 48.16C36.784 48.16 35.7773 47.7667 35.0173 46.98C34.2707 46.1933 33.8973 45.1133 33.8973 43.74V35.82C33.8973 34.1133 34.2373 32.8267 34.9173 31.96C35.5973 31.0933 36.664 30.66 38.1173 30.66C39.384 30.66 40.404 31.0067 41.1773 31.7C41.9507 32.3933 42.3373 33.3933 42.3373 34.7V37.66H38.9173V35.12C38.9173 34.6267 38.8573 34.2867 38.7373 34.1C38.6173 33.9133 38.4107 33.82 38.1173 33.82C37.8107 33.82 37.5973 33.9267 37.4773 34.14C37.3707 34.3533 37.3173 34.6667 37.3173 35.08V43.7C37.3173 44.1533 37.384 44.4867 37.5173 44.7C37.6507 44.9 37.8507 45 38.1173 45C38.6507 45 38.9173 44.5667 38.9173 43.7V40.6H42.3773V43.84C42.3773 46.72 40.9307 48.16 38.0373 48.16ZM43.51 48V30.82H46.91V37.7L48.51 30.82H51.97L50.05 38.68L52.37 48H48.81L46.93 39.68V48H43.51Z" fill="black"/>
</svg>
